<svg width="16" height="16" viewBox="0 0 16 16" fill="none" xmlns="http://www.w3.org/2000/svg">
<mask id="mask0_284_3979" style="mask-type:alpha" maskUnits="userSpaceOnUse" x="0" y="0" width="16" height="16">
<rect width="16" height="16" fill="#00D3AB"/>
</mask>
<g mask="url(#mask0_284_3979)">
<path d="M7.33328 13.5513L5.88975 12.2539C4.98289 11.4291 4.21772 10.7077 3.59422 10.0898C2.97071 9.47184 2.46643 8.90753 2.08138 8.39684C1.69634 7.88615 1.41984 7.40602 1.25188 6.95645C1.08396 6.50687 1 6.04363 1 5.56672C1 4.62056 1.31901 3.83018 1.95703 3.19557C2.59506 2.56096 3.38714 2.24365 4.33328 2.24365C4.91534 2.24365 5.46534 2.37977 5.98328 2.652C6.50123 2.92422 6.95123 3.31461 7.33328 3.82315C7.71534 3.31461 8.16534 2.92422 8.68328 2.652C9.20123 2.37977 9.75123 2.24365 10.3333 2.24365C11.1692 2.24365 11.8745 2.49002 12.4493 2.98277C13.0241 3.4755 13.3969 4.09238 13.5679 4.8334H12.5166C12.3636 4.33767 12.0841 3.94877 11.6782 3.66672C11.2722 3.38466 10.8239 3.24364 10.3333 3.24364C9.77944 3.24364 9.28948 3.39641 8.86342 3.70197C8.43734 4.00752 8.03584 4.44022 7.65892 5.00005H7.00765C6.63328 4.43594 6.22559 4.00218 5.78457 3.69877C5.34354 3.39535 4.85978 3.24364 4.33328 3.24364C3.69141 3.24364 3.14204 3.46415 2.6852 3.90517C2.22837 4.3462 1.99995 4.90005 1.99995 5.56672C1.99995 5.93765 2.07773 6.31415 2.23328 6.6962C2.38884 7.07826 2.66662 7.51864 3.06662 8.01735C3.46662 8.51608 4.01106 9.10026 4.69995 9.76992C5.38884 10.4396 6.26662 11.2496 7.33328 12.2001C7.64782 11.9189 7.98457 11.6201 8.34353 11.3039C8.70251 10.9877 9.00508 10.712 9.25123 10.477L9.96403 11.1898C9.71104 11.4248 9.40955 11.6966 9.05955 12.0052C8.70955 12.3137 8.37942 12.6086 8.06917 12.8898L7.33328 13.5513ZM11.9102 11.1667V9.1667H9.9102V8.16674H11.9102V6.16674H12.9102V8.16674H14.9102V9.1667H12.9102V11.1667H11.9102Z" fill="#00D3AB"/>
</g>
</svg>
