<svg width="16" height="16" viewBox="0 0 16 16" fill="none" xmlns="http://www.w3.org/2000/svg">
<mask id="mask0_83_6375" style="mask-type:alpha" maskUnits="userSpaceOnUse" x="0" y="0" width="16" height="16">
<rect width="16" height="16" fill="#D9D9D9"/>
</mask>
<g mask="url(#mask0_83_6375)">
<path d="M10.9847 8.32051L7.69241 5.02824L10.9847 1.73596L14.277 5.02824L10.9847 8.32051ZM2.53857 7.20515V2.53853H7.20519V7.20515H2.53857ZM8.79496 13.4615V8.79491H13.4616V13.4615H8.79496ZM2.53857 13.4615V8.79491H7.20519V13.4615H2.53857ZM3.53856 6.20518H6.20522V3.53851H3.53856V6.20518ZM11.0013 6.92825L12.8847 5.04491L11.0013 3.16158L9.11801 5.04491L11.0013 6.92825ZM9.79492 12.4615H12.4616V9.79488H9.79492V12.4615ZM3.53856 12.4615H6.20522V9.79488H3.53856V12.4615Z" fill="#00D3AB"/>
</g>
</svg>
