<svg width="30" height="30" viewBox="0 0 30 30" fill="none" xmlns="http://www.w3.org/2000/svg">
<mask id="mask0_41_1369" style="mask-type:alpha" maskUnits="userSpaceOnUse" x="0" y="0" width="30" height="30">
<rect width="30" height="30" fill="#D9D9D9"/>
</mask>
<g mask="url(#mask0_41_1369)">
<path d="M7.8125 17.1874H17.1874V15.3125H7.8125V17.1874ZM7.8125 13.4374H22.1874V11.5625H7.8125V13.4374ZM7.8125 9.68744H22.1874V7.8125H7.8125V9.68744ZM3.125 26.298V5.38462C3.125 4.75321 3.34375 4.21875 3.78125 3.78125C4.21875 3.34375 4.75321 3.125 5.38463 3.125H24.6153C25.2467 3.125 25.7812 3.34375 26.2187 3.78125C26.6562 4.21875 26.8749 4.75321 26.8749 5.38462V19.6153C26.8749 20.2467 26.6562 20.7812 26.2187 21.2187C25.7812 21.6562 25.2467 21.8749 24.6153 21.8749H7.54806L3.125 26.298ZM4.99997 21.7692L6.76922 20H24.6153C24.7275 20 24.8197 19.9639 24.8918 19.8918C24.9639 19.8197 25 19.7275 25 19.6153V5.38462C25 5.27244 24.9639 5.18028 24.8918 5.10816C24.8197 5.03603 24.7275 4.99997 24.6153 4.99997H5.38463C5.27244 4.99997 5.18028 5.03603 5.10816 5.10816C5.03603 5.18028 4.99997 5.27244 4.99997 5.38462V21.7692ZM4.99997 5.38462V4.99997V21.7692V5.38462Z" fill="#1B171E"/>
</g>
</svg>
