<svg width="30" height="30" viewBox="0 0 30 30" fill="none" xmlns="http://www.w3.org/2000/svg">
<mask id="mask0_41_1372" style="mask-type:alpha" maskUnits="userSpaceOnUse" x="0" y="0" width="30" height="30">
<rect width="30" height="30" fill="#D9D9D9"/>
</mask>
<g mask="url(#mask0_41_1372)">
<path d="M2.24854 24.1346V21.3558C2.24854 20.7116 2.41481 20.1367 2.74735 19.6311C3.07987 19.1255 3.52395 18.7321 4.0796 18.4509C5.26753 17.8699 6.46206 17.4219 7.66316 17.107C8.86428 16.7921 10.1844 16.6347 11.6235 16.6347C13.0626 16.6347 14.3827 16.7921 15.5838 17.107C16.7849 17.4219 17.9795 17.8699 19.1674 18.4509C19.7231 18.7321 20.1671 19.1255 20.4997 19.6311C20.8322 20.1367 20.9984 20.7116 20.9984 21.3558V24.1346H2.24854ZM23.4984 24.1346V21.2019C23.4984 20.3814 23.2975 19.5995 22.8958 18.856C22.4939 18.1126 21.924 17.4747 21.186 16.9424C22.0241 17.0674 22.8198 17.2609 23.573 17.5229C24.3262 17.7849 25.0449 18.0946 25.7292 18.452C26.375 18.7965 26.8738 19.2026 27.2256 19.6702C27.5773 20.1379 27.7532 20.6484 27.7532 21.2019V24.1346H23.4984ZM11.6235 14.6154C10.4204 14.6154 9.39046 14.187 8.53369 13.3303C7.67692 12.4735 7.24854 11.4436 7.24854 10.2404C7.24854 9.03732 7.67692 8.00738 8.53369 7.15063C9.39046 6.29386 10.4204 5.86548 11.6235 5.86548C12.8266 5.86548 13.8565 6.29386 14.7133 7.15063C15.5701 8.00738 15.9984 9.03732 15.9984 10.2404C15.9984 11.4436 15.5701 12.4735 14.7133 13.3303C13.8565 14.187 12.8266 14.6154 11.6235 14.6154ZM22.4167 10.2404C22.4167 11.4436 21.9883 12.4735 21.1315 13.3303C20.2747 14.187 19.2448 14.6154 18.0417 14.6154C17.9007 14.6154 17.7212 14.5994 17.5033 14.5673C17.2853 14.5353 17.1058 14.5 16.9648 14.4616C17.4578 13.8689 17.8366 13.2115 18.1013 12.4892C18.3661 11.7669 18.4984 11.0168 18.4984 10.2389C18.4984 9.46111 18.3634 8.71402 18.0934 7.99767C17.8234 7.28133 17.4472 6.62188 16.9648 6.01932C17.1443 5.95522 17.3238 5.91355 17.5033 5.89432C17.6827 5.87509 17.8622 5.86548 18.0417 5.86548C19.2448 5.86548 20.2747 6.29386 21.1315 7.15063C21.9883 8.00738 22.4167 9.03732 22.4167 10.2404ZM4.1235 22.2596H19.1235V21.3558C19.1235 21.0946 19.0582 20.8622 18.9276 20.6587C18.797 20.4551 18.5898 20.2773 18.3062 20.125C17.2773 19.5946 16.218 19.1927 15.1283 18.9195C14.0386 18.6462 12.8703 18.5096 11.6235 18.5096C10.3767 18.5096 9.20844 18.6462 8.11869 18.9195C7.02896 19.1927 5.96967 19.5946 4.94082 20.125C4.65717 20.2773 4.45003 20.4551 4.31941 20.6587C4.18881 20.8622 4.1235 21.0946 4.1235 21.3558V22.2596ZM11.6235 12.7404C12.311 12.7404 12.8995 12.4957 13.3891 12.0061C13.8787 11.5165 14.1235 10.9279 14.1235 10.2404C14.1235 9.55295 13.8787 8.96441 13.3891 8.47482C12.8995 7.98524 12.311 7.74045 11.6235 7.74045C10.936 7.74045 10.3475 7.98524 9.85788 8.47482C9.3683 8.96441 9.1235 9.55295 9.1235 10.2404C9.1235 10.9279 9.3683 11.5165 9.85788 12.0061C10.3475 12.4957 10.936 12.7404 11.6235 12.7404Z" fill="white"/>
</g>
</svg>
