<svg width="18" height="18" viewBox="0 0 18 18" fill="none" xmlns="http://www.w3.org/2000/svg">
<mask id="mask0_207_4788" style="mask-type:alpha" maskUnits="userSpaceOnUse" x="0" y="0" width="18" height="18">
<rect width="18" height="18" fill="#D9D9D9"/>
</mask>
<g mask="url(#mask0_207_4788)">
<path d="M14.8125 3.1875V7.31246H13.6875V5.12158L10.2735 8.50959C10.5158 8.86441 10.7079 9.24025 10.8497 9.63713C10.9915 10.034 11.0625 10.4466 11.0625 10.875C11.0625 11.9727 10.6807 12.9034 9.91721 13.667C9.1537 14.4306 8.22317 14.8125 7.12564 14.8125C6.02809 14.8125 5.09734 14.4307 4.33341 13.6672C3.56947 12.9037 3.1875 11.9732 3.1875 10.8756C3.1875 9.77809 3.56931 8.84734 4.33294 8.08341C5.09657 7.31947 6.02726 6.9375 7.12498 6.9375C7.54709 6.9375 7.95695 7.00649 8.35455 7.14446C8.75215 7.28245 9.12451 7.47644 9.47162 7.72644L12.8856 4.31246H10.6875V3.1875H14.8125ZM7.12382 8.06246C6.34671 8.06246 5.68387 8.33713 5.13531 8.88647C4.58674 9.43581 4.31246 10.099 4.31246 10.8761C4.31246 11.6533 4.58713 12.3161 5.13647 12.8647C5.68581 13.4132 6.34903 13.6875 7.12614 13.6875C7.90326 13.6875 8.56609 13.4128 9.11466 12.8635C9.66322 12.3142 9.9375 11.6509 9.9375 10.8738C9.9375 10.0967 9.66283 9.43387 9.11349 8.8853C8.56416 8.33674 7.90093 8.06246 7.12382 8.06246Z" fill="#2792FF"/>
</g>
</svg>
