<svg width="30" height="30" viewBox="0 0 30 30" fill="none" xmlns="http://www.w3.org/2000/svg">
<mask id="mask0_41_1378" style="mask-type:alpha" maskUnits="userSpaceOnUse" x="0" y="0" width="30" height="30">
<rect width="30" height="30" fill="#D9D9D9"/>
</mask>
<g mask="url(#mask0_41_1378)">
<path d="M13.75 25.4086L11.0434 22.976C9.34305 21.4295 7.90834 20.077 6.73928 18.9183C5.5702 17.7596 4.62467 16.7015 3.90272 15.744C3.18076 14.7865 2.66232 13.8862 2.3474 13.0433C2.03255 12.2003 1.87512 11.3317 1.87512 10.4375C1.87512 8.6635 2.47327 7.18153 3.66956 5.99163C4.86585 4.80173 6.35101 4.20679 8.12503 4.20679C9.21638 4.20679 10.2476 4.46201 11.2188 4.97244C12.1899 5.48286 13.0337 6.21483 13.75 7.16835C14.4664 6.21483 15.3101 5.48286 16.2813 4.97244C17.2524 4.46201 18.2837 4.20679 19.375 4.20679C20.9423 4.20679 22.2648 4.66874 23.3426 5.59263C24.4203 6.51651 25.1194 7.67315 25.4399 9.06257H23.4688C23.1819 8.13307 22.6579 7.40389 21.8967 6.87504C21.1355 6.34618 20.2949 6.08176 19.375 6.08176C18.3366 6.08176 17.4179 6.36821 16.619 6.94113C15.8201 7.51405 15.0673 8.32535 14.3606 9.37504H13.1395C12.4375 8.31733 11.6731 7.50403 10.8462 6.93513C10.0193 6.36621 9.11222 6.08176 8.12503 6.08176C6.92151 6.08176 5.89146 6.49521 5.03487 7.32213C4.17831 8.14907 3.75003 9.18754 3.75003 10.4375C3.75003 11.133 3.89586 11.839 4.18753 12.5553C4.4792 13.2717 5.00003 14.0974 5.75003 15.0325C6.50003 15.9676 7.52086 17.0629 8.81253 18.3185C10.1042 19.5741 11.75 21.093 13.75 22.875C14.3398 22.3478 14.9712 21.7877 15.6442 21.1948C16.3173 20.6018 16.8846 20.085 17.3462 19.6443L18.6827 20.9808C18.2083 21.4215 17.643 21.9311 16.9868 22.5096C16.3305 23.0882 15.7115 23.641 15.1298 24.1683L13.75 25.4086ZM22.3317 20.9375V17.1875H18.5817V15.3126H22.3317V11.5626H24.2067V15.3126H27.9567V17.1875H24.2067V20.9375H22.3317Z" fill="white"/>
</g>
</svg>
