<svg width="18" height="18" viewBox="0 0 18 18" fill="none" xmlns="http://www.w3.org/2000/svg">
<path d="M9 10.0996C9.95566 10.0996 10.7681 9.76495 11.4373 9.09572C12.1065 8.42649 12.4412 7.61404 12.4412 6.65838C12.4412 5.70273 12.1065 4.8903 11.4373 4.22107C10.7681 3.55183 9.95566 3.21722 9 3.21722C8.04434 3.21722 7.2319 3.55183 6.56269 4.22107C5.89346 4.8903 5.55884 5.70273 5.55884 6.65838C5.55884 7.61404 5.89346 8.42649 6.56269 9.09572C7.2319 9.76495 8.04434 10.0996 9 10.0996ZM1.91404 18C1.37919 18 0.926473 17.8147 0.555884 17.4441C0.185295 17.0735 0 16.6208 0 16.086V1.91404C0 1.37919 0.185295 0.926473 0.555884 0.555884C0.926473 0.185295 1.37919 0 1.91404 0H16.086C16.6208 0 17.0735 0.185295 17.4441 0.555884C17.8147 0.926473 18 1.37919 18 1.91404V16.086C18 16.6208 17.8147 17.0735 17.4441 17.4441C17.0735 17.8147 16.6208 18 16.086 18H1.91404ZM1.81221 16.4118H16.1878C16.2625 16.3385 16.3134 16.1746 16.3405 15.92C16.3677 15.6655 16.3914 15.4914 16.4118 15.3978C15.4588 14.4625 14.3515 13.7257 13.0897 13.1875C11.8279 12.6492 10.4647 12.3801 9 12.3801C7.53529 12.3801 6.17205 12.6492 4.91028 13.1875C3.64851 13.7257 2.54116 14.4625 1.58821 15.3978C1.60858 15.4914 1.63234 15.6655 1.6595 15.92C1.68664 16.1746 1.73754 16.3385 1.81221 16.4118Z" fill="#373D49"/>
</svg>
