<svg width="81" height="81" viewBox="0 0 81 81" fill="none" xmlns="http://www.w3.org/2000/svg">
<path fill-rule="evenodd" clip-rule="evenodd" d="M11.3335 23.8333C11.3335 14.6285 18.7954 7.16663 28.0002 7.16663H40.5002C49.7049 7.16663 57.1668 14.6285 57.1668 23.8333V27.5591C64.1711 29.2242 69.6668 35.9802 69.6668 43.8333V55.0871C69.6668 57.0366 70.2367 58.9437 71.3064 60.5736L76.6203 68.6711C77.2924 69.6952 77.3486 71.0055 76.7667 72.0835C76.1848 73.1614 75.0585 73.8333 73.8335 73.8333H40.5002C31.2954 73.8333 23.8335 66.3714 23.8335 57.1666V53.8333H7.16683C5.94185 53.8333 4.81556 53.1614 4.23364 52.0835C3.65171 51.0055 3.70791 49.6952 4.38001 48.6711L9.69398 40.5736C10.7636 38.9437 11.3335 37.0366 11.3335 35.0871V23.8333ZM30.5002 53.8333V57.1666C30.5002 62.6895 34.9773 67.1666 40.5002 67.1666H67.659L65.7327 64.2313C63.95 61.5148 63.0002 58.3363 63.0002 55.0871V43.8333C63.0002 39.5766 60.395 36.0696 57.1668 34.5899V37.1666C57.1668 46.3714 49.7049 53.8333 40.5002 53.8333H30.5002ZM13.3413 47.1666L15.2676 44.2313C17.0504 41.5148 18.0002 38.3363 18.0002 35.0871V23.8333C18.0002 18.3104 22.4773 13.8333 28.0002 13.8333H40.5002C46.023 13.8333 50.5002 18.3104 50.5002 23.8333V37.1666C50.5002 42.6895 46.023 47.1666 40.5002 47.1666H13.3413Z" fill="#EAEAEA"/>
</svg>
