<svg width="24" height="24" viewBox="0 0 24 24" fill="none" xmlns="http://www.w3.org/2000/svg">
<mask id="mask0_1413_16404" style="mask-type:alpha" maskUnits="userSpaceOnUse" x="0" y="0" width="24" height="24">
<rect width="24" height="24" fill="#D9D9D9"/>
</mask>
<g mask="url(#mask0_1413_16404)">
<path d="M11 20.4307C9.12434 20.1871 7.57211 19.3609 6.34327 17.9519C5.11442 16.5429 4.5 14.8923 4.5 13C4.5 11.9833 4.70064 11.0093 5.10192 10.0779C5.50321 9.14649 6.06538 8.32822 6.78845 7.62309L7.85765 8.69232C7.24355 9.25257 6.78042 9.90288 6.46825 10.6433C6.15607 11.3836 5.99997 12.1692 5.99997 13C5.99997 14.4667 6.46824 15.7593 7.40477 16.8779C8.34132 17.9965 9.53972 18.6808 11 18.9308V20.4307ZM13 20.45V18.95C14.4436 18.6577 15.6378 17.958 16.5827 16.8509C17.5275 15.7439 18 14.4602 18 13C18 11.3333 17.4166 9.91666 16.25 8.74999C15.0833 7.58332 13.6666 6.99999 12 6.99999H11.6461L12.9961 8.35002L11.9423 9.40384L8.78847 6.25002L11.9423 3.09619L12.9961 4.15002L11.6461 5.50002H12C14.0923 5.50002 15.8653 6.22694 17.3192 7.68079C18.773 9.13462 19.5 10.9077 19.5 13C19.5 14.882 18.8839 16.5243 17.6519 17.9269C16.4198 19.3294 14.8692 20.1705 13 20.45Z" fill="#999999"/>
</g>
</svg>
