<svg width="16" height="16" viewBox="0 0 16 16" fill="none" xmlns="http://www.w3.org/2000/svg">
<mask id="mask0_214_9371" style="mask-type:alpha" maskUnits="userSpaceOnUse" x="0" y="0" width="16" height="16">
<rect width="16" height="16" fill="#AFB1B6"/>
</mask>
<g mask="url(#mask0_214_9371)">
<path d="M10.3153 11.0179L11.0179 10.3153L8.49993 7.79723V4.66661H7.49996V8.20251L10.3153 11.0179ZM8.00106 14.3333C7.1251 14.3333 6.30175 14.167 5.53099 13.8346C4.76023 13.5021 4.08977 13.051 3.51963 12.4811C2.94947 11.9112 2.4981 11.241 2.16551 10.4706C1.83292 9.7002 1.66663 8.87702 1.66663 8.00106C1.66663 7.1251 1.83285 6.30175 2.16529 5.53099C2.49774 4.76023 2.9489 4.08977 3.51879 3.51963C4.08869 2.94947 4.75885 2.4981 5.52928 2.16551C6.29969 1.83292 7.12287 1.66663 7.99883 1.66663C8.87478 1.66663 9.69814 1.83285 10.4689 2.16529C11.2397 2.49774 11.9101 2.9489 12.4803 3.51879C13.0504 4.08869 13.5018 4.75885 13.8344 5.52928C14.167 6.29969 14.3333 7.12287 14.3333 7.99883C14.3333 8.87478 14.167 9.69814 13.8346 10.4689C13.5021 11.2397 13.051 11.9101 12.4811 12.4803C11.9112 13.0504 11.241 13.5018 10.4706 13.8344C9.7002 14.167 8.87701 14.3333 8.00106 14.3333ZM7.99994 13.3333C9.47772 13.3333 10.7361 12.8138 11.7749 11.7749C12.8138 10.7361 13.3333 9.47772 13.3333 7.99994C13.3333 6.52216 12.8138 5.26383 11.7749 4.22494C10.7361 3.18605 9.47772 2.66661 7.99994 2.66661C6.52216 2.66661 5.26383 3.18605 4.22494 4.22494C3.18605 5.26383 2.66661 6.52216 2.66661 7.99994C2.66661 9.47772 3.18605 10.7361 4.22494 11.7749C5.26383 12.8138 6.52216 13.3333 7.99994 13.3333Z" fill="#999999"/>
</g>
</svg>
