<svg width="24" height="24" viewBox="0 0 24 24" fill="none" xmlns="http://www.w3.org/2000/svg">
<mask id="mask0_73_1507" style="mask-type:alpha" maskUnits="userSpaceOnUse" x="0" y="0" width="24" height="24">
<rect width="24" height="24" fill="#6840FD"/>
</mask>
<g mask="url(#mask0_73_1507)">
<path d="M5.11541 20.5C4.6183 20.5 4.19274 20.323 3.83874 19.969C3.48474 19.615 3.30774 19.1894 3.30774 18.6923V5.30774C3.30774 4.81063 3.48474 4.38507 3.83874 4.03107C4.19274 3.67705 4.6183 3.50004 5.11541 3.50004H13.8077V5.00002H5.11541C5.02566 5.00002 4.95194 5.02887 4.89424 5.08657C4.83654 5.14427 4.80769 5.21799 4.80769 5.30774V18.6923C4.80769 18.782 4.83654 18.8558 4.89424 18.9135C4.95194 18.9712 5.02566 19 5.11541 19H18.5C18.5897 19 18.6635 18.9712 18.7211 18.9135C18.7788 18.8558 18.8077 18.782 18.8077 18.6923V10H20.3077V18.6923C20.3077 19.1894 20.1307 19.615 19.7766 19.969C19.4226 20.323 18.9971 20.5 18.5 20.5H5.11541ZM17.1923 8.61537V6.61537H15.1923V5.11542H17.1923V3.11542H18.6923V5.11542H20.6923V6.61537H18.6923V8.61537H17.1923ZM6.55774 16.75H17.1346L13.8461 12.3654L11.0385 16.0192L9.03849 13.4616L6.55774 16.75Z" fill="#6840FD"/>
</g>
</svg>
