<svg width="24" height="24" viewBox="0 0 24 24" fill="none" xmlns="http://www.w3.org/2000/svg">
<mask id="mask0_358_6562" style="mask-type:alpha" maskUnits="userSpaceOnUse" x="0" y="0" width="24" height="24">
<rect width="24" height="24" fill="#D9D9D9"/>
</mask>
<g mask="url(#mask0_358_6562)">
<path d="M5.11529 20.5C4.61818 20.5 4.19262 20.323 3.83862 19.969C3.48462 19.615 3.30762 19.1894 3.30762 18.6923V5.30774C3.30762 4.81063 3.48462 4.38507 3.83862 4.03107C4.19262 3.67705 4.61818 3.50004 5.11529 3.50004H13.8076V5.00002H5.11529C5.02554 5.00002 4.95182 5.02887 4.89412 5.08657C4.83642 5.14427 4.80757 5.21799 4.80757 5.30774V18.6923C4.80757 18.782 4.83642 18.8558 4.89412 18.9135C4.95182 18.9712 5.02554 19 5.11529 19H18.4999C18.5896 19 18.6633 18.9712 18.721 18.9135C18.7787 18.8558 18.8076 18.782 18.8076 18.6923V10H20.3075V18.6923C20.3075 19.1894 20.1305 19.615 19.7765 19.969C19.4225 20.323 18.997 20.5 18.4999 20.5H5.11529ZM17.1922 8.61537V6.61537H15.1922V5.11542H17.1922V3.11542H18.6922V5.11542H20.6922V6.61537H18.6922V8.61537H17.1922ZM6.55762 16.75H17.1344L13.846 12.3654L11.0383 16.0192L9.03837 13.4616L6.55762 16.75Z" fill="#DDDDDD"/>
</g>
</svg>
