<svg width="18" height="18" viewBox="0 0 18 18" fill="none" xmlns="http://www.w3.org/2000/svg">
<mask id="mask0_207_4803" style="mask-type:alpha" maskUnits="userSpaceOnUse" x="0" y="0" width="18" height="18">
<rect width="18" height="18" fill="#D9D9D9"/>
</mask>
<g mask="url(#mask0_207_4803)">
<path d="M8.4375 15.5625V14.0625H6.9375V12.9375H8.4375V11.0163C7.46443 10.875 6.65866 10.4343 6.02019 9.69444C5.38173 8.95454 5.0625 8.09036 5.0625 7.1019C5.0625 6.01258 5.44639 5.08784 6.21418 4.32771C6.98196 3.56757 7.91056 3.1875 8.99998 3.1875C10.0894 3.1875 11.018 3.56757 11.7858 4.32771C12.5536 5.08784 12.9375 6.01258 12.9375 7.1019C12.9375 8.09036 12.6182 8.95454 11.9798 9.69444C11.3413 10.4343 10.5355 10.875 9.56246 11.0163V12.9375H11.0625V14.0625H9.56246V15.5625H8.4375ZM9.00114 9.9375C9.77826 9.9375 10.4411 9.66283 10.9897 9.11349C11.5382 8.56416 11.8125 7.90093 11.8125 7.12382C11.8125 6.34671 11.5378 5.68387 10.9885 5.13531C10.4392 4.58674 9.77593 4.31246 8.99882 4.31246C8.22171 4.31246 7.55887 4.58713 7.01031 5.13647C6.46174 5.68581 6.18746 6.34903 6.18746 7.12614C6.18746 7.90326 6.46213 8.56609 7.01147 9.11466C7.56081 9.66322 8.22403 9.9375 9.00114 9.9375Z" fill="#FF5463"/>
</g>
</svg>
