<svg width="20" height="20" viewBox="0 0 20 20" fill="none" xmlns="http://www.w3.org/2000/svg">
<mask id="mask0_550_3174" style="mask-type:alpha" maskUnits="userSpaceOnUse" x="-2" y="-2" width="25" height="24">
<rect x="-1.5" y="-2" width="24" height="24" fill="#D9D9D9"/>
</mask>
<g mask="url(#mask0_550_3174)">
<path d="M3.8077 19.5C3.30257 19.5 2.875 19.325 2.525 18.975C2.175 18.625 2 18.1974 2 17.6923V4.30772C2 3.80258 2.175 3.37502 2.525 3.02502C2.875 2.67502 3.30257 2.50002 3.8077 2.50002H5.19233V0.384644H6.73075V2.50002H14.3077V0.384644H15.8076V2.50002H17.1923C17.6974 2.50002 18.125 2.67502 18.475 3.02502C18.825 3.37502 19 3.80258 19 4.30772V17.6923C19 18.1974 18.825 18.625 18.475 18.975C18.125 19.325 17.6974 19.5 17.1923 19.5H3.8077ZM3.8077 18H17.1923C17.2692 18 17.3397 17.9679 17.4038 17.9038C17.4679 17.8397 17.5 17.7692 17.5 17.6923V8.30772H3.49997V17.6923C3.49997 17.7692 3.53202 17.8397 3.59612 17.9038C3.66024 17.9679 3.73077 18 3.8077 18ZM3.49997 6.80774H17.5V4.30772C17.5 4.23078 17.4679 4.16026 17.4038 4.09614C17.3397 4.03204 17.2692 3.99999 17.1923 3.99999H3.8077C3.73077 3.99999 3.66024 4.03204 3.59612 4.09614C3.53202 4.16026 3.49997 4.23078 3.49997 4.30772V6.80774ZM10.5 12.0769C10.2551 12.0769 10.0465 11.9907 9.87403 11.8183C9.70159 11.6458 9.61538 11.4372 9.61538 11.1923C9.61538 10.9475 9.70159 10.7388 9.87403 10.5664C10.0465 10.3939 10.2551 10.3077 10.5 10.3077C10.7448 10.3077 10.9535 10.3939 11.1259 10.5664C11.2984 10.7388 11.3846 10.9475 11.3846 11.1923C11.3846 11.4372 11.2984 11.6458 11.1259 11.8183C10.9535 11.9907 10.7448 12.0769 10.5 12.0769ZM6.49998 12.0769C6.25511 12.0769 6.04646 11.9907 5.87403 11.8183C5.70159 11.6458 5.61538 11.4372 5.61538 11.1923C5.61538 10.9475 5.70159 10.7388 5.87403 10.5664C6.04646 10.3939 6.25511 10.3077 6.49998 10.3077C6.74484 10.3077 6.95349 10.3939 7.12593 10.5664C7.29836 10.7388 7.38458 10.9475 7.38458 11.1923C7.38458 11.4372 7.29836 11.6458 7.12593 11.8183C6.95349 11.9907 6.74484 12.0769 6.49998 12.0769ZM14.5 12.0769C14.2551 12.0769 14.0465 11.9907 13.874 11.8183C13.7016 11.6458 13.6154 11.4372 13.6154 11.1923C13.6154 10.9475 13.7016 10.7388 13.874 10.5664C14.0465 10.3939 14.2551 10.3077 14.5 10.3077C14.7448 10.3077 14.9535 10.3939 15.1259 10.5664C15.2984 10.7388 15.3846 10.9475 15.3846 11.1923C15.3846 11.4372 15.2984 11.6458 15.1259 11.8183C14.9535 11.9907 14.7448 12.0769 14.5 12.0769ZM10.5 16C10.2551 16 10.0465 15.9138 9.87403 15.7413C9.70159 15.5689 9.61538 15.3603 9.61538 15.1154C9.61538 14.8705 9.70159 14.6619 9.87403 14.4894C10.0465 14.317 10.2551 14.2308 10.5 14.2308C10.7448 14.2308 10.9535 14.317 11.1259 14.4894C11.2984 14.6619 11.3846 14.8705 11.3846 15.1154C11.3846 15.3603 11.2984 15.5689 11.1259 15.7413C10.9535 15.9138 10.7448 16 10.5 16ZM6.49998 16C6.25511 16 6.04646 15.9138 5.87403 15.7413C5.70159 15.5689 5.61538 15.3603 5.61538 15.1154C5.61538 14.8705 5.70159 14.6619 5.87403 14.4894C6.04646 14.317 6.25511 14.2308 6.49998 14.2308C6.74484 14.2308 6.95349 14.317 7.12593 14.4894C7.29836 14.6619 7.38458 14.8705 7.38458 15.1154C7.38458 15.3603 7.29836 15.5689 7.12593 15.7413C6.95349 15.9138 6.74484 16 6.49998 16ZM14.5 16C14.2551 16 14.0465 15.9138 13.874 15.7413C13.7016 15.5689 13.6154 15.3603 13.6154 15.1154C13.6154 14.8705 13.7016 14.6619 13.874 14.4894C14.0465 14.317 14.2551 14.2308 14.5 14.2308C14.7448 14.2308 14.9535 14.317 15.1259 14.4894C15.2984 14.6619 15.3846 14.8705 15.3846 15.1154C15.3846 15.3603 15.2984 15.5689 15.1259 15.7413C14.9535 15.9138 14.7448 16 14.5 16Z" fill="#999999"/>
</g>
</svg>
