<svg width="10" height="16" viewBox="0 0 10 16" fill="none" xmlns="http://www.w3.org/2000/svg">
<path d="M2.00012 15.6155C1.5559 15.6155 1.17562 15.4573 0.859266 15.141C0.542933 14.8246 0.384766 14.4443 0.384766 14.0001C0.384766 13.5559 0.542933 13.1756 0.859266 12.8593C1.17562 12.5429 1.5559 12.3848 2.00012 12.3848C2.44433 12.3848 2.82462 12.5429 3.14097 12.8593C3.4573 13.1756 3.61547 13.5559 3.61547 14.0001C3.61547 14.4443 3.4573 14.8246 3.14097 15.141C2.82462 15.4573 2.44433 15.6155 2.00012 15.6155ZM8.00012 15.6155C7.5559 15.6155 7.17562 15.4573 6.85927 15.141C6.54293 14.8246 6.38477 14.4443 6.38477 14.0001C6.38477 13.5559 6.54293 13.1756 6.85927 12.8593C7.17562 12.5429 7.5559 12.3848 8.00012 12.3848C8.44433 12.3848 8.82462 12.5429 9.14097 12.8593C9.4573 13.1756 9.61547 13.5559 9.61547 14.0001C9.61547 14.4443 9.4573 14.8246 9.14097 15.141C8.82462 15.4573 8.44433 15.6155 8.00012 15.6155ZM2.00012 9.61547C1.5559 9.61547 1.17562 9.4573 0.859266 9.14097C0.542933 8.82462 0.384766 8.44433 0.384766 8.00012C0.384766 7.5559 0.542933 7.17562 0.859266 6.85927C1.17562 6.54293 1.5559 6.38477 2.00012 6.38477C2.44433 6.38477 2.82462 6.54293 3.14097 6.85927C3.4573 7.17562 3.61547 7.5559 3.61547 8.00012C3.61547 8.44433 3.4573 8.82462 3.14097 9.14097C2.82462 9.4573 2.44433 9.61547 2.00012 9.61547ZM8.00012 9.61547C7.5559 9.61547 7.17562 9.4573 6.85927 9.14097C6.54293 8.82462 6.38477 8.44433 6.38477 8.00012C6.38477 7.5559 6.54293 7.17562 6.85927 6.85927C7.17562 6.54293 7.5559 6.38477 8.00012 6.38477C8.44433 6.38477 8.82462 6.54293 9.14097 6.85927C9.4573 7.17562 9.61547 7.5559 9.61547 8.00012C9.61547 8.44433 9.4573 8.82462 9.14097 9.14097C8.82462 9.4573 8.44433 9.61547 8.00012 9.61547ZM2.00012 3.61547C1.5559 3.61547 1.17562 3.4573 0.859266 3.14097C0.542933 2.82462 0.384766 2.44433 0.384766 2.00012C0.384766 1.5559 0.542933 1.17562 0.859266 0.859267C1.17562 0.542933 1.5559 0.384766 2.00012 0.384766C2.44433 0.384766 2.82462 0.542933 3.14097 0.859267C3.4573 1.17562 3.61547 1.5559 3.61547 2.00012C3.61547 2.44433 3.4573 2.82462 3.14097 3.14097C2.82462 3.4573 2.44433 3.61547 2.00012 3.61547ZM8.00012 3.61547C7.5559 3.61547 7.17562 3.4573 6.85927 3.14097C6.54293 2.82462 6.38477 2.44433 6.38477 2.00012C6.38477 1.5559 6.54293 1.17562 6.85927 0.859267C7.17562 0.542933 7.5559 0.384766 8.00012 0.384766C8.44433 0.384766 8.82462 0.542933 9.14097 0.859267C9.4573 1.17562 9.61547 1.5559 9.61547 2.00012C9.61547 2.44433 9.4573 2.82462 9.14097 3.14097C8.82462 3.4573 8.44433 3.61547 8.00012 3.61547Z" fill="#999999"/>
</svg>
