<svg width="30" height="30" viewBox="0 0 30 30" fill="none" xmlns="http://www.w3.org/2000/svg">
<mask id="mask0_41_1387" style="mask-type:alpha" maskUnits="userSpaceOnUse" x="0" y="0" width="30" height="30">
<rect width="30" height="30" fill="#D9D9D9"/>
</mask>
<g mask="url(#mask0_41_1387)">
<path d="M12.1154 26.8749L11.6395 23.0673C11.3045 22.9551 10.9612 22.798 10.6094 22.5961C10.2576 22.3942 9.94313 22.1778 9.66588 21.947L6.13945 23.4374L3.25488 18.4375L6.30535 16.1322C6.2765 15.9463 6.25606 15.7596 6.24404 15.5721C6.23202 15.3846 6.22601 15.1979 6.22601 15.012C6.22601 14.8341 6.23202 14.6534 6.24404 14.4699C6.25606 14.2864 6.2765 14.0857 6.30535 13.8678L3.25488 11.5625L6.13945 6.58656L9.65385 8.06494C9.95514 7.82615 10.2769 7.60779 10.619 7.40988C10.9612 7.21194 11.2973 7.05287 11.6274 6.93269L12.1154 3.125H17.8846L18.3605 6.94472C18.7355 7.08093 19.0749 7.23998 19.3786 7.42188C19.6823 7.60377 19.9888 7.81813 20.2981 8.06494L23.8606 6.58656L26.7451 11.5625L23.6466 13.9038C23.6915 14.1057 23.7159 14.2944 23.7199 14.4699C23.7239 14.6454 23.7259 14.8221 23.7259 15C23.7259 15.1698 23.7219 15.3425 23.7139 15.518C23.7059 15.6935 23.677 15.8942 23.6274 16.1202L26.7019 18.4375L23.8173 23.4374L20.2981 21.935C19.9888 22.1818 19.6731 22.4002 19.3509 22.5901C19.0288 22.78 18.6987 22.935 18.3605 23.0552L17.8846 26.8749H12.1154ZM15.0144 18.7499C16.0545 18.7499 16.9395 18.385 17.6694 17.655C18.3994 16.925 18.7644 16.04 18.7644 15C18.7644 13.9599 18.3994 13.0749 17.6694 12.3449C16.9395 11.615 16.0545 11.25 15.0144 11.25C13.9616 11.25 13.0734 11.615 12.3498 12.3449C11.6262 13.0749 11.2645 13.9599 11.2645 15C11.2645 16.04 11.6262 16.925 12.3498 17.655C13.0734 18.385 13.9616 18.7499 15.0144 18.7499ZM15.0144 16.875C14.4936 16.875 14.0509 16.6927 13.6863 16.3281C13.3217 15.9635 13.1394 15.5208 13.1394 15C13.1394 14.4791 13.3217 14.0364 13.6863 13.6718C14.0509 13.3073 14.4936 13.125 15.0144 13.125C15.5352 13.125 15.978 13.3073 16.3425 13.6718C16.7071 14.0364 16.8894 14.4791 16.8894 15C16.8894 15.5208 16.7071 15.9635 16.3425 16.3281C15.978 16.6927 15.5352 16.875 15.0144 16.875ZM13.75 25H16.2067L16.6563 21.6514C17.2941 21.4847 17.877 21.248 18.405 20.9411C18.9331 20.6342 19.4423 20.2396 19.9327 19.7572L23.0385 21.0625L24.2692 18.9375L21.5577 16.8942C21.6619 16.5705 21.7328 16.2532 21.7704 15.9423C21.8081 15.6314 21.8269 15.3173 21.8269 15C21.8269 14.6747 21.8081 14.3606 21.7704 14.0577C21.7328 13.7548 21.6619 13.4455 21.5577 13.1298L24.2933 11.0625L23.0625 8.93747L19.9207 10.262C19.5024 9.81488 19.0012 9.41984 18.4171 9.07691C17.8329 8.73395 17.242 8.49116 16.6442 8.34853L16.25 4.99997H13.7692L13.3558 8.3365C12.718 8.48715 12.129 8.71792 11.5889 9.02881C11.0489 9.33971 10.5337 9.74035 10.0433 10.2308L6.93751 8.93747L5.70673 11.0625L8.40626 13.0745C8.30209 13.371 8.22917 13.6794 8.18751 14C8.14584 14.3205 8.12501 14.6578 8.12501 15.012C8.12501 15.3373 8.14584 15.6562 8.18751 15.9687C8.22917 16.2812 8.29808 16.5897 8.39423 16.8942L5.70673 18.9375L6.93751 21.0625L10.0313 19.75C10.5056 20.2372 11.0128 20.6362 11.5529 20.9471C12.0929 21.258 12.6899 21.4968 13.3438 21.6634L13.75 25Z" fill="#1B171E"/>
</g>
</svg>
