<svg width="20" height="20" viewBox="0 0 20 20" fill="none" xmlns="http://www.w3.org/2000/svg">
<mask id="mask0_3656_10195" style="mask-type:alpha" maskUnits="userSpaceOnUse" x="0" y="0" width="20" height="20">
<rect width="20" height="20" fill="#D9D9D9"/>
</mask>
<g mask="url(#mask0_3656_10195)">
<path d="M4.99998 16.6667C4.54165 16.6667 4.14929 16.5035 3.8229 16.1771C3.49651 15.8507 3.33331 15.4583 3.33331 15C3.33331 14.5417 3.49651 14.1493 3.8229 13.8229C4.14929 13.4965 4.54165 13.3333 4.99998 13.3333C5.45831 13.3333 5.85067 13.4965 6.17706 13.8229C6.50345 14.1493 6.66665 14.5417 6.66665 15C6.66665 15.4583 6.50345 15.8507 6.17706 16.1771C5.85067 16.5035 5.45831 16.6667 4.99998 16.6667ZM9.99998 16.6667C9.54165 16.6667 9.14929 16.5035 8.8229 16.1771C8.49651 15.8507 8.33331 15.4583 8.33331 15C8.33331 14.5417 8.49651 14.1493 8.8229 13.8229C9.14929 13.4965 9.54165 13.3333 9.99998 13.3333C10.4583 13.3333 10.8507 13.4965 11.1771 13.8229C11.5035 14.1493 11.6666 14.5417 11.6666 15C11.6666 15.4583 11.5035 15.8507 11.1771 16.1771C10.8507 16.5035 10.4583 16.6667 9.99998 16.6667ZM15 16.6667C14.5416 16.6667 14.1493 16.5035 13.8229 16.1771C13.4965 15.8507 13.3333 15.4583 13.3333 15C13.3333 14.5417 13.4965 14.1493 13.8229 13.8229C14.1493 13.4965 14.5416 13.3333 15 13.3333C15.4583 13.3333 15.8507 13.4965 16.1771 13.8229C16.5035 14.1493 16.6666 14.5417 16.6666 15C16.6666 15.4583 16.5035 15.8507 16.1771 16.1771C15.8507 16.5035 15.4583 16.6667 15 16.6667ZM4.99998 11.6667C4.54165 11.6667 4.14929 11.5035 3.8229 11.1771C3.49651 10.8507 3.33331 10.4583 3.33331 10C3.33331 9.54168 3.49651 9.14932 3.8229 8.82293C4.14929 8.49654 4.54165 8.33334 4.99998 8.33334C5.45831 8.33334 5.85067 8.49654 6.17706 8.82293C6.50345 9.14932 6.66665 9.54168 6.66665 10C6.66665 10.4583 6.50345 10.8507 6.17706 11.1771C5.85067 11.5035 5.45831 11.6667 4.99998 11.6667ZM9.99998 11.6667C9.54165 11.6667 9.14929 11.5035 8.8229 11.1771C8.49651 10.8507 8.33331 10.4583 8.33331 10C8.33331 9.54168 8.49651 9.14932 8.8229 8.82293C9.14929 8.49654 9.54165 8.33334 9.99998 8.33334C10.4583 8.33334 10.8507 8.49654 11.1771 8.82293C11.5035 9.14932 11.6666 9.54168 11.6666 10C11.6666 10.4583 11.5035 10.8507 11.1771 11.1771C10.8507 11.5035 10.4583 11.6667 9.99998 11.6667ZM15 11.6667C14.5416 11.6667 14.1493 11.5035 13.8229 11.1771C13.4965 10.8507 13.3333 10.4583 13.3333 10C13.3333 9.54168 13.4965 9.14932 13.8229 8.82293C14.1493 8.49654 14.5416 8.33334 15 8.33334C15.4583 8.33334 15.8507 8.49654 16.1771 8.82293C16.5035 9.14932 16.6666 9.54168 16.6666 10C16.6666 10.4583 16.5035 10.8507 16.1771 11.1771C15.8507 11.5035 15.4583 11.6667 15 11.6667ZM4.99998 6.66668C4.54165 6.66668 4.14929 6.50348 3.8229 6.17709C3.49651 5.8507 3.33331 5.45834 3.33331 5.00001C3.33331 4.54168 3.49651 4.14932 3.8229 3.82293C4.14929 3.49654 4.54165 3.33334 4.99998 3.33334C5.45831 3.33334 5.85067 3.49654 6.17706 3.82293C6.50345 4.14932 6.66665 4.54168 6.66665 5.00001C6.66665 5.45834 6.50345 5.8507 6.17706 6.17709C5.85067 6.50348 5.45831 6.66668 4.99998 6.66668ZM9.99998 6.66668C9.54165 6.66668 9.14929 6.50348 8.8229 6.17709C8.49651 5.8507 8.33331 5.45834 8.33331 5.00001C8.33331 4.54168 8.49651 4.14932 8.8229 3.82293C9.14929 3.49654 9.54165 3.33334 9.99998 3.33334C10.4583 3.33334 10.8507 3.49654 11.1771 3.82293C11.5035 4.14932 11.6666 4.54168 11.6666 5.00001C11.6666 5.45834 11.5035 5.8507 11.1771 6.17709C10.8507 6.50348 10.4583 6.66668 9.99998 6.66668ZM15 6.66668C14.5416 6.66668 14.1493 6.50348 13.8229 6.17709C13.4965 5.8507 13.3333 5.45834 13.3333 5.00001C13.3333 4.54168 13.4965 4.14932 13.8229 3.82293C14.1493 3.49654 14.5416 3.33334 15 3.33334C15.4583 3.33334 15.8507 3.49654 16.1771 3.82293C16.5035 4.14932 16.6666 4.54168 16.6666 5.00001C16.6666 5.45834 16.5035 5.8507 16.1771 6.17709C15.8507 6.50348 15.4583 6.66668 15 6.66668Z" fill="#6840FD"/>
</g>
</svg>
