<svg width="20" height="20" viewBox="0 0 20 20" fill="none" xmlns="http://www.w3.org/2000/svg">
<path d="M7.50002 9.79166C7.22375 9.79166 6.9588 9.9014 6.76345 10.0968C6.5681 10.2921 6.45835 10.5571 6.45835 10.8333C6.45835 11.1096 6.5681 11.3745 6.76345 11.5699C6.9588 11.7652 7.22375 11.875 7.50002 11.875C7.63681 11.875 7.77227 11.848 7.89865 11.7957C8.02503 11.7433 8.13986 11.6666 8.23659 11.5699C8.33332 11.4732 8.41005 11.3583 8.46239 11.232C8.51474 11.1056 8.54169 10.9701 8.54169 10.8333C8.54169 10.6965 8.51474 10.5611 8.46239 10.4347C8.41005 10.3083 8.33332 10.1935 8.23659 10.0968C8.13986 10 8.02503 9.9233 7.89865 9.87095C7.77227 9.8186 7.63681 9.79166 7.50002 9.79166ZM12.5 9.79166C12.2238 9.79166 11.9588 9.9014 11.7635 10.0968C11.5681 10.2921 11.4584 10.5571 11.4584 10.8333C11.4584 11.1096 11.5681 11.3745 11.7635 11.5699C11.9588 11.7652 12.2238 11.875 12.5 11.875C12.7763 11.875 13.0412 11.7652 13.2366 11.5699C13.4319 11.3745 13.5417 11.1096 13.5417 10.8333C13.5417 10.5571 13.4319 10.2921 13.2366 10.0968C13.0412 9.9014 12.7763 9.79166 12.5 9.79166ZM10 1.66666C8.90567 1.66666 7.82204 1.8822 6.81099 2.30099C5.79994 2.71978 4.88129 3.33361 4.10746 4.10743C2.54466 5.67024 1.66669 7.78985 1.66669 9.99999C1.66669 12.2101 2.54466 14.3297 4.10746 15.8925C4.88129 16.6664 5.79994 17.2802 6.81099 17.699C7.82204 18.1178 8.90567 18.3333 10 18.3333C12.2102 18.3333 14.3298 17.4553 15.8926 15.8925C17.4554 14.3297 18.3334 12.2101 18.3334 9.99999C18.3334 8.90564 18.1178 7.82201 17.699 6.81096C17.2802 5.79991 16.6664 4.88125 15.8926 4.10743C15.1188 3.33361 14.2001 2.71978 13.189 2.30099C12.178 1.8822 11.0944 1.66666 10 1.66666ZM10 16.6667C6.32502 16.6667 3.33335 13.675 3.33335 9.99999C3.33335 9.75832 3.33335 9.51666 3.37502 9.28332C5.34169 8.40832 6.90002 6.79999 7.71669 4.80832C8.6694 6.16031 10.0038 7.19732 11.5492 7.78667C13.0946 8.37602 14.7806 8.49092 16.3917 8.11666C16.5667 8.70832 16.6667 9.34166 16.6667 9.99999C16.6667 13.675 13.675 16.6667 10 16.6667Z" fill="#6840FD"/>
</svg>
