<svg width="20" height="20" viewBox="0 0 20 20" fill="none" xmlns="http://www.w3.org/2000/svg">
<path d="M7.50002 9.79169C7.22375 9.79169 6.9588 9.90143 6.76345 10.0968C6.5681 10.2921 6.45835 10.5571 6.45835 10.8334C6.45835 11.1096 6.5681 11.3746 6.76345 11.5699C6.9588 11.7653 7.22375 11.875 7.50002 11.875C7.63681 11.875 7.77227 11.8481 7.89865 11.7957C8.02503 11.7434 8.13986 11.6667 8.23659 11.5699C8.33332 11.4732 8.41005 11.3584 8.46239 11.232C8.51474 11.1056 8.54169 10.9701 8.54169 10.8334C8.54169 10.6966 8.51474 10.5611 8.46239 10.4347C8.41005 10.3083 8.33332 10.1935 8.23659 10.0968C8.13986 10.0001 8.02503 9.92333 7.89865 9.87098C7.77227 9.81863 7.63681 9.79169 7.50002 9.79169ZM12.5 9.79169C12.2238 9.79169 11.9588 9.90143 11.7635 10.0968C11.5681 10.2921 11.4584 10.5571 11.4584 10.8334C11.4584 11.1096 11.5681 11.3746 11.7635 11.5699C11.9588 11.7653 12.2238 11.875 12.5 11.875C12.7763 11.875 13.0412 11.7653 13.2366 11.5699C13.4319 11.3746 13.5417 11.1096 13.5417 10.8334C13.5417 10.5571 13.4319 10.2921 13.2366 10.0968C13.0412 9.90143 12.7763 9.79169 12.5 9.79169ZM10 1.66669C8.90567 1.66669 7.82204 1.88224 6.81099 2.30102C5.79994 2.71981 4.88129 3.33364 4.10746 4.10746C2.54466 5.67027 1.66669 7.78988 1.66669 10C1.66669 12.2102 2.54466 14.3298 4.10746 15.8926C4.88129 16.6664 5.79994 17.2802 6.81099 17.699C7.82204 18.1178 8.90567 18.3334 10 18.3334C12.2102 18.3334 14.3298 17.4554 15.8926 15.8926C17.4554 14.3298 18.3334 12.2102 18.3334 10C18.3334 8.90567 18.1178 7.82204 17.699 6.81099C17.2802 5.79994 16.6664 4.88129 15.8926 4.10746C15.1188 3.33364 14.2001 2.71981 13.189 2.30102C12.178 1.88224 11.0944 1.66669 10 1.66669ZM10 16.6667C6.32502 16.6667 3.33335 13.675 3.33335 10C3.33335 9.75835 3.33335 9.51669 3.37502 9.28335C5.34169 8.40835 6.90002 6.80002 7.71669 4.80835C8.6694 6.16034 10.0038 7.19735 11.5492 7.7867C13.0946 8.37605 14.7806 8.49095 16.3917 8.11669C16.5667 8.70835 16.6667 9.34169 16.6667 10C16.6667 13.675 13.675 16.6667 10 16.6667Z" fill="#999999"/>
</svg>
