<svg width="81" height="80" viewBox="0 0 81 80" fill="none" xmlns="http://www.w3.org/2000/svg">
<path fill-rule="evenodd" clip-rule="evenodd" d="M14.6668 26.6667C14.6668 17.4619 22.1287 10 31.3334 10H57.1668C66.3715 10 73.8334 17.4619 73.8334 26.6667V53.3333C73.8334 62.5381 66.3715 70 57.1668 70H10.5001C9.2751 70 8.14882 69.3281 7.56689 68.2502C6.98496 67.1722 7.04116 65.862 7.71326 64.8378L13.0272 56.7403C14.0969 55.1104 14.6668 53.2033 14.6668 51.2538V26.6667ZM31.3334 16.6667C25.8106 16.6667 21.3334 21.1438 21.3334 26.6667V51.2538C21.3334 54.5031 20.3836 57.6815 18.6009 60.398L16.6746 63.3333H57.1668C62.6896 63.3333 67.1668 58.8562 67.1668 53.3333V26.6667C67.1668 21.1438 62.6896 16.6667 57.1668 16.6667H31.3334ZM54.5238 32.643C55.8255 33.9447 55.8255 36.0553 54.5238 37.357L44.5238 47.357C43.222 48.6588 41.1115 48.6588 39.8097 47.357L34.8097 42.357C33.508 41.0553 33.508 38.9447 34.8097 37.643C36.1115 36.3412 38.222 36.3412 39.5238 37.643L42.1668 40.286L49.8097 32.643C51.1115 31.3412 53.222 31.3412 54.5238 32.643Z" fill="#EAEAEA"/>
</svg>
