<svg width="81" height="80" viewBox="0 0 81 80" fill="none" xmlns="http://www.w3.org/2000/svg">
<path fill-rule="evenodd" clip-rule="evenodd" d="M14.6668 26.6667C14.6668 17.4619 22.1287 10 31.3334 10H57.1668C66.3715 10 73.8334 17.4619 73.8334 26.6667V53.3333C73.8334 62.5381 66.3715 70 57.1668 70H10.5001C9.2751 70 8.14882 69.3281 7.56689 68.2502C6.98496 67.1722 7.04116 65.862 7.71326 64.8378L13.0272 56.7403C14.0969 55.1104 14.6668 53.2033 14.6668 51.2538V26.6667ZM31.3334 16.6667C25.8106 16.6667 21.3334 21.1438 21.3334 26.6667V51.2538C21.3334 54.5031 20.3836 57.6815 18.6009 60.398L16.6746 63.3333H57.1668C62.6896 63.3333 67.1668 58.8562 67.1668 53.3333V26.6667C67.1668 21.1438 62.6896 16.6667 57.1668 16.6667H31.3334ZM35.5838 31.7504C36.8856 30.4487 38.9961 30.4487 40.2979 31.7504L43.8334 35.286L47.3689 31.7504C48.6707 30.4487 50.7812 30.4487 52.083 31.7504C53.3847 33.0522 53.3847 35.1627 52.083 36.4645L48.5475 40L52.083 43.5355C53.3847 44.8373 53.3847 46.9478 52.083 48.2496C50.7812 49.5513 48.6707 49.5513 47.3689 48.2496L43.8334 44.714L40.2979 48.2496C38.9961 49.5513 36.8856 49.5513 35.5838 48.2496C34.2821 46.9478 34.2821 44.8373 35.5838 43.5355L39.1194 40L35.5838 36.4645C34.2821 35.1627 34.2821 33.0522 35.5838 31.7504Z" fill="#EAEAEA"/>
</svg>
