<svg width="81" height="80" viewBox="0 0 81 80" fill="none" xmlns="http://www.w3.org/2000/svg">
<path fill-rule="evenodd" clip-rule="evenodd" d="M14.6665 26.6667C14.6665 17.4619 22.1284 10 31.3332 10H57.1665C66.3713 10 73.8332 17.4619 73.8332 26.6667V53.3333C73.8332 62.5381 66.3713 70 57.1665 70H10.4998C9.27486 70 8.14857 69.3281 7.56664 68.2502C6.98472 67.1722 7.04092 65.862 7.71301 64.8378L13.027 56.7403C14.0966 55.1104 14.6665 53.2033 14.6665 51.2538V26.6667ZM31.3332 16.6667C25.8103 16.6667 21.3332 21.1438 21.3332 26.6667V51.2538C21.3332 54.5031 20.3834 57.6815 18.6006 60.398L16.6744 63.3333H57.1665C62.6894 63.3333 67.1665 58.8562 67.1665 53.3333V26.6667C67.1665 21.1438 62.6894 16.6667 57.1665 16.6667H31.3332ZM43.8332 28.3333C45.6741 28.3333 47.1665 29.8257 47.1665 31.6667V36.6667H52.1665C54.0075 36.6667 55.4998 38.159 55.4998 40C55.4998 41.841 54.0075 43.3333 52.1665 43.3333H47.1665V48.3333C47.1665 50.1743 45.6741 51.6667 43.8332 51.6667C41.9922 51.6667 40.4998 50.1743 40.4998 48.3333V43.3333H35.4998C33.6589 43.3333 32.1665 41.841 32.1665 40C32.1665 38.159 33.6589 36.6667 35.4998 36.6667H40.4998V31.6667C40.4998 29.8257 41.9922 28.3333 43.8332 28.3333Z" fill="#EAEAEA"/>
</svg>
