<svg width="17" height="17" viewBox="0 0 17 17" fill="none" xmlns="http://www.w3.org/2000/svg">
<mask id="mask0_1511_32831" style="mask-type:alpha" maskUnits="userSpaceOnUse" x="0" y="0" width="17" height="17">
<rect x="0.571289" y="0.5" width="16" height="16" fill="#D9D9D9"/>
</mask>
<g mask="url(#mask0_1511_32831)">
<path d="M5.94273 11.1667H13.5324C13.5837 11.1667 13.6307 11.1453 13.6735 11.1026C13.7162 11.0598 13.7376 11.0128 13.7376 10.9615V4.5H5.73758V10.9615C5.73758 11.0128 5.75895 11.0598 5.8017 11.1026C5.84443 11.1453 5.89144 11.1667 5.94273 11.1667ZM5.94273 12.1666C5.60597 12.1666 5.32094 12.05 5.08761 11.8166C4.85428 11.5833 4.73761 11.2983 4.73761 10.9615V3.37181C4.73761 3.03506 4.85428 2.75001 5.08761 2.51668C5.32094 2.28335 5.60597 2.16668 5.94273 2.16668H13.5324C13.8692 2.16668 14.1542 2.28335 14.3876 2.51668C14.6209 2.75001 14.7376 3.03506 14.7376 3.37181V10.9615C14.7376 11.2983 14.6209 11.5833 14.3876 11.8166C14.1542 12.05 13.8692 12.1666 13.5324 12.1666H5.94273ZM3.60941 14.4999C3.27267 14.4999 2.98763 14.3833 2.7543 14.1499C2.52096 13.9166 2.4043 13.6316 2.4043 13.2948V4.70515H3.40428V13.2948C3.40428 13.3461 3.42565 13.3931 3.46838 13.4359C3.51112 13.4786 3.55814 13.5 3.60941 13.5H12.1991V14.4999H3.60941Z" fill="#373D49"/>
</g>
</svg>
