<svg width="200" height="53" viewBox="0 0 200 53" fill="none" xmlns="http://www.w3.org/2000/svg">
<g clip-path="url(#clip0_6380_66559)">
<path d="M5.03342 31.4303C5.31921 31.4303 5.52739 31.4938 5.66499 31.6208C5.79907 31.7478 5.88375 31.9878 5.91551 32.3406C6.03194 33.6002 6.37772 34.5035 6.94931 35.0504C7.52091 35.5973 8.23716 35.869 9.09455 35.869C9.53207 35.869 9.93783 35.809 10.3189 35.6925C10.6964 35.5761 11.0246 35.3891 11.3033 35.1386C11.582 34.8881 11.7937 34.5705 11.9455 34.193C12.0972 33.8155 12.1713 33.3568 12.1713 32.8169C12.1713 32.0936 12.0407 31.4938 11.7796 31.014C11.5185 30.5341 11.1833 30.1319 10.7705 29.8037C10.3577 29.4756 9.87785 29.2039 9.33448 28.9851C8.78759 28.7664 8.21952 28.5476 7.63381 28.3289C6.80818 28.0254 5.95079 27.6761 5.06164 27.281C4.16897 26.8858 3.35039 26.3989 2.60238 25.8167C1.85437 25.238 1.23691 24.5394 0.749996 23.7244C0.263083 22.9093 0.0196265 21.939 0.0196265 20.8135C0.0196265 18.8305 0.749996 17.2957 2.21426 16.2125C3.67853 15.1293 5.82024 14.5859 8.64645 14.5859C11.4727 14.5859 13.4662 15.0093 14.8881 15.8597C16.31 16.71 17.1286 17.9485 17.3474 19.5786C17.3791 19.8467 17.3438 20.0972 17.2345 20.323C17.1251 20.5489 16.8852 20.6618 16.5147 20.6618H12.3548C12.1536 20.6618 11.9878 20.6265 11.8643 20.5594C11.7373 20.4924 11.642 20.4112 11.575 20.3195C11.5079 20.2278 11.4621 20.1255 11.4374 20.0161C11.4127 19.9067 11.3915 19.8114 11.3739 19.7267C11.2715 18.82 11.0069 18.1496 10.58 17.7226C10.1531 17.2957 9.53207 17.0805 8.7276 17.0805C7.92314 17.0805 7.25628 17.2922 6.78701 17.7121C6.31774 18.1319 6.08134 18.8305 6.08134 19.8044C6.08134 20.4254 6.16955 20.9652 6.34596 21.4168C6.52238 21.872 6.79407 22.2742 7.16454 22.6271C7.53502 22.9799 8.00782 23.301 8.59 23.5868C9.16865 23.8726 9.85315 24.1407 10.6435 24.3948C13.0639 25.1851 14.9234 26.1378 16.2183 27.2563C17.5132 28.3747 18.1589 29.8002 18.1589 31.5291C18.1589 33.7837 17.3968 35.4879 15.876 36.6487C14.3553 37.8096 12.0795 38.3882 9.05574 38.3882C7.47504 38.3882 6.13073 38.2365 5.0193 37.9331C3.9114 37.6296 2.99756 37.2133 2.28483 36.684C1.56857 36.1548 1.03226 35.5232 0.672372 34.7928C0.31248 34.0624 0.0866652 33.258 0.00551305 32.383C-0.0121287 32.1818 0.0125698 31.9701 0.0796085 31.7514C0.146647 31.5326 0.383047 31.4232 0.785279 31.4232H5.04753L5.03342 31.4303Z" fill="#222222"/>
<path d="M40.7147 37.1514C40.817 37.4372 40.81 37.6418 40.7006 37.7689C40.5912 37.8959 40.4007 37.9594 40.1325 37.9594H38.5942C38.3578 37.9594 38.206 37.9347 38.139 37.8853C38.072 37.8359 37.9943 37.7089 37.9132 37.5078L36.3501 33.0938H26.566L25.077 37.3313C24.943 37.7512 24.6395 37.9629 24.1702 37.9629H20.1091C19.788 37.9629 19.5834 37.8712 19.4916 37.6842C19.3999 37.5007 19.4034 37.2643 19.5058 36.9785L27.0952 15.6178C27.2293 15.2474 27.3987 15.018 27.5998 14.9228C27.8009 14.831 28.0691 14.7852 28.4078 14.7852H31.6856C32.0208 14.7852 32.2925 14.831 32.4936 14.9228C32.6947 15.0145 32.8641 15.2474 32.9982 15.6178L40.7147 37.1549V37.1514ZM27.4516 30.571H35.4716L31.4634 19.1462L27.4551 30.571H27.4516Z" fill="#222222"/>
<path d="M46.7951 31.4283C47.0809 31.4283 47.2891 31.4919 47.4267 31.6189C47.5608 31.7459 47.6455 31.9858 47.6772 32.3387C47.7937 33.5983 48.1394 34.5015 48.711 35.0484C49.2826 35.5953 49.9989 35.867 50.8563 35.867C51.2938 35.867 51.6995 35.807 52.0806 35.6906C52.4581 35.5742 52.7863 35.3872 53.065 35.1366C53.3438 34.8861 53.5555 34.5686 53.7072 34.191C53.8589 33.8135 53.933 33.3548 53.933 32.815C53.933 32.0917 53.8024 31.4919 53.5413 31.012C53.2802 30.5321 52.9451 30.1299 52.5322 29.8018C52.1194 29.4736 51.6396 29.202 51.0962 28.9832C50.5493 28.7644 49.9812 28.5457 49.3955 28.3269C48.5699 28.0235 47.7125 27.6742 46.8234 27.279C45.9307 26.8838 45.1121 26.3969 44.3641 25.8147C43.6161 25.2361 42.9986 24.5375 42.5117 23.7224C42.0248 22.9074 41.7813 21.9371 41.7813 20.8115C41.7813 18.8286 42.5117 17.2938 43.976 16.2106C45.4402 15.1274 47.582 14.584 50.4082 14.584C53.2344 14.584 55.2279 15.0074 56.6498 15.8577C58.0718 16.7081 58.8903 17.9465 59.1091 19.5766C59.1408 19.8448 59.1056 20.0953 58.9962 20.3211C58.8868 20.5469 58.6469 20.6598 58.2764 20.6598H54.1165C53.9154 20.6598 53.7495 20.6245 53.626 20.5575C53.499 20.4904 53.4037 20.4093 53.3367 20.3176C53.2697 20.2258 53.2238 20.1235 53.1991 20.0141C53.1744 19.9047 53.1532 19.8095 53.1356 19.7248C53.0333 18.818 52.7686 18.1476 52.3417 17.7207C51.9148 17.2938 51.2938 17.0785 50.4893 17.0785C49.6849 17.0785 49.018 17.2902 48.5487 17.7101C48.0795 18.13 47.8431 18.8286 47.8431 19.8024C47.8431 20.4234 47.9313 20.9632 48.1077 21.4149C48.2841 21.87 48.5558 22.2723 48.9263 22.6251C49.2967 22.9779 49.7695 23.299 50.3517 23.5848C50.9304 23.8706 51.6149 24.1388 52.4052 24.3928C54.8257 25.1832 56.6851 26.1358 57.98 27.2543C59.2749 28.3728 59.9206 29.7982 59.9206 31.5271C59.9206 33.7818 59.1585 35.486 57.6378 36.6468C56.117 37.8076 53.8413 38.3863 50.8175 38.3863C49.2368 38.3863 47.8925 38.2345 46.781 37.9311C45.6731 37.6277 44.7593 37.2113 44.0465 36.6821C43.3303 36.1528 42.794 35.5212 42.4341 34.7909C42.0742 34.0605 41.8484 33.256 41.7672 32.381C41.7496 32.1799 41.7743 31.9682 41.8413 31.7494C41.9084 31.5307 42.1448 31.4213 42.547 31.4213H46.8093L46.7951 31.4283Z" fill="#222222"/>
<path d="M71.7887 14.582C73.5034 14.582 74.9712 14.829 76.1885 15.3265C77.4058 15.824 78.4043 16.565 79.177 17.56C79.9497 18.5514 80.5178 19.7864 80.8777 21.2683C81.2376 22.7466 81.4211 24.4791 81.4211 26.462C81.4211 28.4449 81.2411 30.2126 80.8777 31.7087C80.5178 33.2047 79.9497 34.4502 79.177 35.4417C78.4043 36.4331 77.4058 37.1776 76.1885 37.6751C74.9677 38.1691 73.5034 38.4196 71.7887 38.4196C70.0739 38.4196 68.6061 38.1691 67.3888 37.6645C66.168 37.16 65.173 36.4084 64.4003 35.4064C63.6276 34.4043 63.0595 33.1588 62.6996 31.6628C62.3397 30.1668 62.1562 28.4273 62.1562 26.4444C62.1562 24.4614 62.3362 22.7255 62.6996 21.2365C63.0595 19.7475 63.6311 18.5126 64.4144 17.5282C65.1977 16.5438 66.1962 15.8099 67.417 15.323C68.6343 14.8361 70.095 14.5926 71.7922 14.5926L71.7887 14.582ZM75.7475 26.4373C75.7475 24.5884 75.6593 23.0501 75.4828 21.8222C75.3064 20.5943 75.0489 19.6099 74.7137 18.8725C74.3785 18.1316 73.9621 17.6129 73.4646 17.3094C72.9671 17.006 72.4096 16.8543 71.7887 16.8543C71.1677 16.8543 70.6067 17.006 70.1127 17.3094C69.6152 17.6129 69.1953 18.128 68.8531 18.8619C68.5073 19.5923 68.2427 20.5767 68.0592 21.8116C67.8757 23.0466 67.7804 24.5884 67.7804 26.4408C67.7804 28.2932 67.8722 29.8386 68.0592 31.0806C68.2427 32.3261 68.5073 33.3211 68.8531 34.0691C69.1988 34.8171 69.6187 35.3499 70.1127 35.671C70.6067 35.9886 71.1677 36.1509 71.7887 36.1509C72.4096 36.1509 72.9707 35.9921 73.4646 35.671C73.9621 35.3499 74.3749 34.8171 74.7137 34.0691C75.0489 33.3211 75.3064 32.3261 75.4828 31.0806C75.6593 29.8351 75.7475 28.2897 75.7475 26.4408V26.4373Z" fill="#222222"/>
<path d="M102.527 36.5496C102.527 37.0048 102.418 37.3506 102.199 37.5975C101.98 37.841 101.62 37.9645 101.116 37.9645H98.0389C97.5344 37.9645 97.1745 37.841 96.9557 37.5975C96.737 37.3541 96.6276 37.0048 96.6276 36.5496V27.1924H89.8955V36.5496C89.8955 37.0048 89.7861 37.3506 89.5674 37.5975C89.3486 37.841 88.9887 37.9645 88.4842 37.9645H85.4074C84.9029 37.9645 84.5395 37.841 84.3242 37.5975C84.1055 37.3541 83.9961 37.0048 83.9961 36.5496V16.1981C83.9961 15.7429 84.1055 15.3971 84.3242 15.1502C84.543 14.9067 84.9029 14.7832 85.4074 14.7832H88.4842C88.9887 14.7832 89.3486 14.9067 89.5674 15.1502C89.7861 15.3936 89.8955 15.7429 89.8955 16.1981V24.6732H96.6276V16.1981C96.6276 15.7429 96.737 15.3971 96.9557 15.1502C97.1745 14.9067 97.5344 14.7832 98.0389 14.7832H101.116C101.62 14.7832 101.98 14.9067 102.199 15.1502C102.418 15.3936 102.527 15.7429 102.527 16.1981V36.5496Z" fill="#222222"/>
<path d="M125.476 37.1514C125.579 37.4372 125.572 37.6418 125.462 37.7689C125.353 37.8959 125.162 37.9594 124.894 37.9594H123.356C123.119 37.9594 122.968 37.9347 122.901 37.8853C122.834 37.8359 122.756 37.7089 122.675 37.5078L121.112 33.0938H111.328L109.839 37.3313C109.705 37.7512 109.401 37.9629 108.932 37.9629H104.871C104.55 37.9629 104.345 37.8712 104.253 37.6842C104.162 37.5007 104.165 37.2643 104.267 36.9785L111.857 15.6178C111.991 15.2474 112.16 15.018 112.362 14.9228C112.563 14.831 112.831 14.7852 113.17 14.7852H116.447C116.783 14.7852 117.054 14.831 117.255 14.9228C117.456 15.0145 117.626 15.2474 117.76 15.6178L125.476 37.1549V37.1514ZM112.213 30.571H120.233L116.225 19.1462L112.217 30.571H112.213Z" fill="#222222"/>
<path d="M144.641 36.5496C144.641 37.0048 144.532 37.3506 144.313 37.5975C144.094 37.841 143.734 37.9645 143.23 37.9645H140.584C140.347 37.9645 140.107 37.9221 139.864 37.8375C139.62 37.7528 139.398 37.5446 139.197 37.2059L129.942 21.293V37.3082C129.942 37.4917 129.9 37.6469 129.815 37.774C129.73 37.901 129.554 37.9645 129.286 37.9645H127.723C127.472 37.9645 127.299 37.901 127.204 37.774C127.112 37.6469 127.066 37.4917 127.066 37.3082V16.2016C127.066 15.7464 127.176 15.4007 127.395 15.1537C127.613 14.9102 127.973 14.7867 128.478 14.7867H131.124C131.36 14.7867 131.6 14.8255 131.844 14.8996C132.087 14.9737 132.31 15.189 132.511 15.5418L141.766 31.4794V15.4395C141.766 15.256 141.808 15.1008 141.893 14.9737C141.977 14.8467 142.154 14.7832 142.422 14.7832H143.985C144.235 14.7832 144.408 14.8467 144.5 14.9737C144.592 15.1008 144.638 15.256 144.638 15.4395V36.5461L144.641 36.5496Z" fill="#222222"/>
<path d="M193.897 19.8242C190.963 23.899 187.283 28.447 183.099 33.0767C179.004 37.6077 174.936 41.6485 171.242 44.9403C173.458 45.9343 175.916 46.4892 178.507 46.4892C188.324 46.4892 196.28 38.5302 196.28 28.716C196.28 25.4786 195.412 22.442 193.9 19.8276L193.897 19.8242ZM190.05 34.5031C188.937 34.5031 188.038 33.601 188.038 32.4912C188.038 31.3814 188.941 30.4793 190.05 30.4793C191.16 30.4793 192.062 31.3814 192.062 32.4912C192.062 33.601 191.16 34.5031 190.05 34.5031Z" fill="url(#paint0_linear_6380_66559)"/>
<path d="M181.795 31.6742C192.835 19.4634 200.352 7.83128 199.991 3.87902C199.95 3.41605 199.8 3.05521 199.531 2.81351C198.023 1.45183 193.162 4.14114 186.881 9.40742C186.949 9.46529 187.017 9.51976 187.085 9.57763C190.183 7.23896 192.423 6.16664 193.189 6.85769C193.21 6.87471 193.227 6.89513 193.244 6.91556C193.458 7.15726 193.516 7.55895 193.431 8.10022C193.203 9.5538 191.943 12.0082 189.911 15.072C186.823 12.4882 182.851 10.9325 178.51 10.9325C168.693 10.9325 160.737 18.8915 160.737 28.7058C160.737 33.6895 162.786 38.1898 166.092 41.417C163.12 43.851 160.727 45.3761 159.328 45.6552C158.854 45.7505 158.494 45.7029 158.266 45.4986C157.547 44.8484 158.252 42.7378 160.019 39.7217C159.927 39.6809 159.838 39.6366 159.75 39.5856C155.43 46.0569 153.418 50.8977 154.878 52.2185C155.093 52.4125 155.379 52.5249 155.726 52.5555C159.467 52.9164 170.517 44.154 181.806 31.6674L181.795 31.6742ZM181.38 22.3467C182.49 22.3467 183.392 23.2489 183.392 24.3586C183.392 25.4684 182.49 26.3705 181.38 26.3705C180.27 26.3705 179.368 25.4684 179.368 24.3586C179.368 23.2489 180.27 22.3467 181.38 22.3467ZM170.051 23.7357V22.2072L174.384 19.8753H175.603V33.5908L172.369 36.8384V23.6744L170.051 23.7323V23.7357Z" fill="url(#paint1_linear_6380_66559)"/>
<path d="M179.919 4.8318C182.197 5.02925 183.044 6.14923 183.232 8.66492C183.238 8.75683 183.306 8.83173 183.388 8.83173H183.395C183.477 8.83173 183.545 8.75683 183.552 8.66492C183.732 6.23433 184.753 5.10414 186.867 4.85563C186.949 4.84542 187.01 4.77053 187.01 4.67521V4.62415C187.01 4.53224 186.949 4.45394 186.867 4.44373C184.74 4.19182 183.725 3.05482 183.548 0.600399C183.541 0.505082 183.473 0.433594 183.392 0.433594C183.31 0.433594 183.242 0.508486 183.235 0.600399C183.055 3.13992 182.204 4.26671 179.916 4.46415C179.834 4.47096 179.77 4.54926 179.77 4.64457V4.65138C179.77 4.7467 179.834 4.825 179.916 4.8318H179.919Z" fill="url(#paint2_linear_6380_66559)"/>
<path d="M163.506 8.58016C164.932 8.70271 165.46 9.40397 165.579 10.9801C165.583 11.038 165.627 11.0856 165.678 11.0856H165.681C165.732 11.0856 165.773 11.0414 165.78 10.9801C165.892 9.45844 166.532 8.75377 167.857 8.59378C167.908 8.58697 167.945 8.53931 167.945 8.48144V8.4508C167.945 8.39293 167.904 8.34527 167.857 8.33846C166.525 8.18187 165.889 7.46699 165.78 5.9317C165.777 5.87383 165.732 5.82617 165.681 5.82617C165.63 5.82617 165.586 5.87383 165.583 5.9317C165.47 7.52146 164.936 8.22612 163.506 8.35208C163.455 8.35548 163.414 8.40655 163.414 8.46442C163.414 8.5291 163.455 8.57676 163.506 8.58016Z" fill="url(#paint3_linear_6380_66559)"/>
<path d="M199.091 43.7408C197.76 43.5842 197.123 42.8693 197.014 41.334C197.011 41.2762 196.967 41.2285 196.916 41.2285C196.865 41.2285 196.82 41.2762 196.817 41.334C196.705 42.9238 196.17 43.6285 194.74 43.7544C194.689 43.7578 194.648 43.8089 194.648 43.8668C194.648 43.9314 194.689 43.9791 194.74 43.9825C196.167 44.1051 196.694 44.8063 196.813 46.3825C196.817 46.4403 196.861 46.488 196.912 46.488H196.916C196.967 46.488 197.008 46.4437 197.014 46.3825C197.127 44.8608 197.767 44.1561 199.091 43.9961C199.142 43.9893 199.179 43.9417 199.179 43.8838V43.8531C199.179 43.7953 199.139 43.7476 199.091 43.7408Z" fill="url(#paint4_linear_6380_66559)"/>
<path d="M155.274 35.0172C155.278 35.0751 155.322 35.1228 155.373 35.1228H155.377C155.428 35.1228 155.468 35.0785 155.475 35.0172C155.588 33.4956 156.228 32.7909 157.552 32.6309C157.603 32.6241 157.64 32.5764 157.64 32.5185V32.4879C157.64 32.43 157.6 32.3824 157.552 32.3756C156.221 32.219 155.584 31.5041 155.475 29.9688C155.472 29.9109 155.428 29.8633 155.377 29.8633C155.326 29.8633 155.281 29.9109 155.278 29.9688C155.166 31.5586 154.631 32.2632 153.201 32.3892C153.15 32.3926 153.109 32.4437 153.109 32.5015C153.109 32.5662 153.15 32.6139 153.201 32.6173C154.628 32.7398 155.155 33.4411 155.274 35.0172Z" fill="url(#paint5_linear_6380_66559)"/>
</g>
<defs>
<linearGradient id="paint0_linear_6380_66559" x1="203.899" y1="15.4737" x2="168.335" y2="58.7988" gradientUnits="userSpaceOnUse">
<stop stop-color="#AE60A3"/>
<stop offset="1" stop-color="#F7E495"/>
</linearGradient>
<linearGradient id="paint1_linear_6380_66559" x1="190.142" y1="4.17859" x2="154.575" y2="47.5003" gradientUnits="userSpaceOnUse">
<stop stop-color="#AE60A3"/>
<stop offset="1" stop-color="#F7E495"/>
</linearGradient>
<linearGradient id="paint2_linear_6380_66559" x1="186.346" y1="1.05997" x2="150.779" y2="44.385" gradientUnits="userSpaceOnUse">
<stop stop-color="#AE60A3"/>
<stop offset="1" stop-color="#F7E495"/>
</linearGradient>
<linearGradient id="paint3_linear_6380_66559" x1="177.633" y1="-6.08849" x2="142.066" y2="37.2333" gradientUnits="userSpaceOnUse">
<stop stop-color="#AE60A3"/>
<stop offset="1" stop-color="#F7E495"/>
</linearGradient>
<linearGradient id="paint4_linear_6380_66559" x1="213.657" y1="23.4859" x2="178.09" y2="66.8076" gradientUnits="userSpaceOnUse">
<stop stop-color="#AE60A3"/>
<stop offset="1" stop-color="#F7E495"/>
</linearGradient>
<linearGradient id="paint5_linear_6380_66559" x1="183.267" y1="-1.46548" x2="147.7" y2="41.8563" gradientUnits="userSpaceOnUse">
<stop stop-color="#AE60A3"/>
<stop offset="1" stop-color="#F7E495"/>
</linearGradient>
<clipPath id="clip0_6380_66559">
<rect width="200.002" height="52.1332" fill="white" transform="translate(0 0.433594)"/>
</clipPath>
</defs>
</svg>
