<svg width="207" height="33" viewBox="0 0 207 33" fill="none" xmlns="http://www.w3.org/2000/svg">
<path d="M15.2181 22.0661C15.2181 18.6715 13.2044 16.5714 9.26319 15.7372L6.35766 15.1331C3.79733 14.5865 2.47402 13.407 2.47402 11.2782C2.47402 8.94801 4.17131 7.36579 7.19192 7.36579C10.2125 7.36579 11.8811 8.94801 11.8811 11.2782V11.7097H14.3838V11.2782C14.3838 7.94114 11.8811 5.17944 7.19192 5.17944C2.47402 5.17944 0 7.94114 0 11.2782C0 14.6152 2.07127 16.5427 5.58093 17.2619L8.48647 17.866C11.4208 18.4701 12.7441 19.9948 12.7441 22.0948C12.7441 24.5401 10.8166 26.3237 7.62344 26.3237C4.37269 26.3237 2.47402 24.5401 2.47402 22.0948V21.462H0V22.0661C0 25.7196 2.73293 28.4813 7.62344 28.4813C12.4852 28.4813 15.2181 25.7196 15.2181 22.0661Z" fill="#1B171E"/>
<path d="M23.8244 5.55342L15.9132 28.1073H18.5311L20.3435 22.7565H30.182L31.9944 28.1073H34.5835L26.7011 5.55342H23.8244ZM29.4053 20.5702H21.0627L25.2627 8.14251L29.4053 20.5702Z" fill="#1B171E"/>
<path d="M50.6731 22.0661C50.6731 18.6715 48.6594 16.5714 44.7182 15.7372L41.8127 15.1331C39.2524 14.5865 37.9291 13.407 37.9291 11.2782C37.9291 8.94801 39.6264 7.36579 42.647 7.36579C45.6676 7.36579 47.3361 8.94801 47.3361 11.2782V11.7097H49.8389V11.2782C49.8389 7.94114 47.3361 5.17944 42.647 5.17944C37.9291 5.17944 35.455 7.94114 35.455 11.2782C35.455 14.6152 37.5263 16.5427 41.036 17.2619L43.9415 17.866C46.8758 18.4701 48.1991 19.9948 48.1991 22.0948C48.1991 24.5401 46.2717 26.3237 43.0785 26.3237C39.8277 26.3237 37.9291 24.5401 37.9291 22.0948V21.462H35.455V22.0661C35.455 25.7196 38.188 28.4813 43.0785 28.4813C47.9402 28.4813 50.6731 25.7196 50.6731 22.0661Z" fill="#1B171E"/>
<path d="M70.1174 16.8304C70.1174 10.3864 68.2763 5.17944 61.5159 5.17944C54.8418 5.17944 52.9431 10.4152 52.9431 16.8304C52.9431 23.3319 54.8705 28.4813 61.5159 28.4813C68.2187 28.4813 70.1174 23.3606 70.1174 16.8304ZM67.6434 16.8304C67.6434 22.6414 66.2625 26.2949 61.5159 26.2949C56.798 26.2949 55.4459 22.6702 55.4459 16.8304C55.4459 11.0193 56.8267 7.36579 61.5159 7.36579C66.2338 7.36579 67.6434 11.048 67.6434 16.8304Z" fill="#1B171E"/>
<path d="M86.1426 28.1073H88.6453V5.55342H86.1426V15.4495H75.8437V5.55342H73.3409V28.1073H75.8437V17.6646H86.1426V28.1073Z" fill="#1B171E"/>
<path d="M98.4709 5.55342L90.5597 28.1073H93.1776L94.99 22.7565H104.829L106.641 28.1073H109.23L101.348 5.55342H98.4709ZM104.052 20.5702H95.7092L99.9092 8.14251L104.052 20.5702Z" fill="#1B171E"/>
<path d="M126.833 28.1073V5.55342H124.33V23.562L113.715 5.55342H111.212V28.1073H113.715V10.0987L124.33 28.1073H126.833Z" fill="#1B171E"/>
<rect x="134.172" y="0.5" width="72.7273" height="32" rx="15.5025" fill="url(#paint0_linear_48_1569)"/>
<path fill-rule="evenodd" clip-rule="evenodd" d="M159.026 7.72481C159.275 7.72841 159.505 7.86056 159.633 8.0742L169.777 24.9813L168.543 25.7219L158.996 9.81066L148.801 25.7396L147.589 24.9636L158.409 8.05652C158.544 7.84668 158.777 7.72121 159.026 7.72481Z" fill="white"/>
<path fill-rule="evenodd" clip-rule="evenodd" d="M169.17 7.72481C169.419 7.72841 169.649 7.86056 169.777 8.0742L179.921 24.9813L178.687 25.7219L169.14 9.81066L158.946 25.7396L157.733 24.9636L168.554 8.05652C168.688 7.84668 168.921 7.72121 169.17 7.72481Z" fill="white"/>
<path fill-rule="evenodd" clip-rule="evenodd" d="M169.16 7.72473H191.477V9.16432H169.16V7.72473Z" fill="white"/>
<path fill-rule="evenodd" clip-rule="evenodd" d="M171.865 11.7827L192.153 11.7827V13.2223L171.865 13.2223V11.7827Z" fill="white"/>
<path fill-rule="evenodd" clip-rule="evenodd" d="M173.851 15.84L192.874 15.84L192.874 17.2796L173.851 17.2796L173.851 15.84Z" fill="white"/>
<path fill-rule="evenodd" clip-rule="evenodd" d="M192.873 15.84L192.873 25.395L191.434 25.395L191.434 15.84L192.873 15.84Z" fill="white"/>
<path fill-rule="evenodd" clip-rule="evenodd" d="M192.873 25.3952L178.584 25.3952L178.584 23.9556L192.873 23.9556L192.873 25.3952Z" fill="white"/>
<defs>
<linearGradient id="paint0_linear_48_1569" x1="196.613" y1="0.499998" x2="143.976" y2="32.4947" gradientUnits="userSpaceOnUse">
<stop stop-color="#6902FE"/>
<stop offset="1" stop-color="#F530EB"/>
</linearGradient>
</defs>
</svg>
